<svg width="6" height="9" viewBox="0 0 6 9" fill="none" xmlns="http://www.w3.org/2000/svg">
<path d="M0.347021 8.67569C-0.115674 8.24329 -0.115674 7.54222 0.347021 7.10981L3.97741 3.71706C4.44011 3.28466 5.19028 3.28466 5.65298 3.71706C6.11567 4.14947 6.11567 4.85054 5.65298 5.28295L2.02259 8.67569C1.55989 9.1081 0.809716 9.1081 0.347021 8.67569Z" fill="#C69A4C"/>
<path d="M0.347021 0.324305C0.809716 -0.108102 1.55989 -0.108102 2.02259 0.324304L5.65298 3.71706C6.11567 4.14947 6.11567 4.85054 5.65298 5.28295C5.19028 5.71535 4.44011 5.71534 3.97741 5.28294L0.347021 1.89019C-0.115674 1.45778 -0.115674 0.756712 0.347021 0.324305Z" fill="#C69A4C"/>
</svg>
