<svg width="1582" height="245" viewBox="0 0 1582 245" fill="none" xmlns="http://www.w3.org/2000/svg">
<path d="M34.2585 220.127H0V2.4873H108.07V220.127H73.1887V33.5787H34.2585V220.127Z" fill="#F5F5F5" fill-opacity="0.1"/>
<path d="M183.363 2.4873C200.597 2.4873 213.366 7.04737 221.671 16.1675C230.183 25.2876 234.44 38.6569 234.44 56.2754V84.5685C234.44 102.187 230.183 115.556 221.671 124.676C213.366 133.797 200.597 138.357 183.363 138.357H167.169V220.127H132.91V2.4873H183.363ZM167.169 33.5787V107.265H183.363C188.762 107.265 192.914 105.814 195.821 102.912C198.728 100.011 200.181 94.6214 200.181 86.7449V54.099C200.181 46.2225 198.728 40.8333 195.821 37.9315C192.914 35.0296 188.762 33.5787 183.363 33.5787H167.169Z" fill="#F5F5F5" fill-opacity="0.1"/>
<path d="M284.263 94.2068H331.291V125.298H284.263V189.036H343.437V220.127H250.005V2.4873H343.437V33.5787H284.263V94.2068Z" fill="#F5F5F5" fill-opacity="0.1"/>
<path d="M398.947 220.127H363.754V2.4873H394.275V132.76L429.468 2.4873H472.447V220.127H441.614V62.4936L398.947 220.127Z" fill="#F5F5F5" fill-opacity="0.1"/>
<path d="M570.149 157.011L593.507 2.4873H641.158V220.127H608.768V64.0482L585.098 220.127H552.708L527.17 66.2246V220.127H497.272V2.4873H544.922L570.149 157.011Z" fill="#F5F5F5" fill-opacity="0.1"/>
<path d="M675.414 189.036C677.283 189.243 679.255 189.346 681.331 189.346C683.408 189.346 685.38 189.346 687.249 189.346C689.948 189.346 692.439 189.036 694.723 188.414C697.215 187.792 699.291 186.652 700.952 184.994C702.821 183.335 704.17 180.952 705.001 177.843C706.039 174.734 706.558 170.795 706.558 166.028L656.727 2.4873H690.986L728.67 129.962L759.814 2.4873H794.073L749.226 162.919C745.281 177.843 741.232 189.346 737.079 197.43C733.134 205.307 728.878 211.007 724.31 214.53C719.742 217.847 714.759 219.712 709.361 220.127C704.17 220.541 698.357 220.749 691.92 220.749C688.806 220.749 686.003 220.749 683.511 220.749C681.02 220.749 678.321 220.541 675.414 220.127V189.036Z" fill="#F5F5F5" fill-opacity="0.1"/>
<path d="M809.626 2.4873H843.573V189.036H871.602V2.4873H905.861V189.036H933.579V2.4873H968.149V189.036H985.901V245H951.02V220.127H809.626V2.4873Z" fill="#F5F5F5" fill-opacity="0.1"/>
<path d="M1032.76 94.2068H1079.78V125.298H1032.76V189.036H1091.93V220.127H998.498V2.4873H1091.93V33.5787H1032.76V94.2068Z" fill="#F5F5F5" fill-opacity="0.1"/>
<path d="M1211.29 138.978V167.893C1211.29 185.512 1206.92 199.088 1198.2 208.623C1189.69 217.951 1177.03 222.614 1160.21 222.614C1143.39 222.614 1130.62 217.951 1121.9 208.623C1113.39 199.088 1109.13 185.512 1109.13 167.893V54.7208C1109.13 37.1024 1113.39 23.6294 1121.9 14.302C1130.62 4.76734 1143.39 0 1160.21 0C1177.03 0 1189.69 4.76734 1198.2 14.302C1206.92 23.6294 1211.29 37.1024 1211.29 54.7208V75.8629H1178.9V52.5444C1178.9 44.6679 1177.23 39.1751 1173.91 36.066C1170.8 32.7496 1166.54 31.0914 1161.14 31.0914C1155.74 31.0914 1151.38 32.7496 1148.06 36.066C1144.95 39.1751 1143.39 44.6679 1143.39 52.5444V170.07C1143.39 177.946 1144.95 183.439 1148.06 186.548C1151.38 189.657 1155.74 191.212 1161.14 191.212C1166.54 191.212 1170.8 189.657 1173.91 186.548C1177.23 183.439 1178.9 177.946 1178.9 170.07V138.978H1211.29Z" fill="#F5F5F5" fill-opacity="0.1"/>
<path d="M1223.65 2.4873H1329.54V33.5787H1293.72V220.127H1259.46V33.5787H1223.65V2.4873Z" fill="#F5F5F5" fill-opacity="0.1"/>
<path d="M1396.92 2.4873C1414.77 2.4873 1427.65 6.63281 1435.54 14.9239C1443.63 23.2149 1447.68 35.7551 1447.68 52.5444V60.3173C1447.68 71.5101 1445.92 80.7339 1442.39 87.9886C1438.86 95.2432 1433.25 100.632 1425.57 104.156C1434.91 107.68 1441.45 113.484 1445.19 121.567C1449.14 129.444 1451.11 139.186 1451.11 150.793V168.515C1451.11 185.305 1446.75 198.156 1438.03 207.069C1429.31 215.774 1416.33 220.127 1399.1 220.127H1345.22V2.4873H1396.92ZM1379.48 122.189V189.036H1399.1C1404.91 189.036 1409.27 187.481 1412.18 184.372C1415.29 181.263 1416.85 175.666 1416.85 167.582V148.617C1416.85 138.46 1415.09 131.516 1411.56 127.786C1408.23 124.055 1402.63 122.189 1394.74 122.189H1379.48ZM1379.48 33.5787V91.0977H1392.87C1399.31 91.0977 1404.29 89.4395 1407.82 86.1231C1411.56 82.8067 1413.43 76.7957 1413.43 68.0901V55.9645C1413.43 48.088 1411.97 42.3879 1409.06 38.8642C1406.37 35.3405 1402.01 33.5787 1395.98 33.5787H1379.48Z" fill="#F5F5F5" fill-opacity="0.1"/>
<path d="M1582 220.127H1547.43L1541.51 180.641H1499.47L1493.55 220.127H1462.1L1496.98 2.4873H1547.12L1582 220.127ZM1503.83 151.104H1536.84L1520.33 41.0406L1503.83 151.104Z" fill="#F5F5F5" fill-opacity="0.1"/>
</svg>
