<svg width="353" height="80" viewBox="0 0 353 80" fill="none" xmlns="http://www.w3.org/2000/svg">
<path d="M45.2924 57.2061H35.5881V71.8475H45.2924V57.2061Z" fill="#C69A4C"/>
<mask id="mask0_104_2398" style="mask-type:luminance" maskUnits="userSpaceOnUse" x="0" y="0" width="82" height="80">
<path d="M58.2343 70.5346V78.1697C58.2343 79.0619 58.9566 79.7885 59.8531 79.7885C60.7495 79.7885 61.4718 79.0619 61.4718 78.1697V70.5346C61.4718 69.6423 60.7495 68.9158 59.8531 68.9158C58.9566 68.9158 58.2343 69.6381 58.2343 70.5346ZM6.47094 53.7857V66.8296C6.47094 67.7219 7.19748 68.4484 8.08973 68.4484C8.98199 68.4484 9.70854 67.7219 9.70854 66.8296V53.7857C9.70854 52.8935 8.98623 52.1669 8.08973 52.1669C7.19323 52.1669 6.47094 52.8935 6.47094 53.7857ZM77.9955 49.8386V53.8665C77.9955 54.7587 78.722 55.4853 79.6143 55.4853C80.5065 55.4853 81.2331 54.763 81.2331 53.8665V49.8386C81.2331 48.9463 80.5108 48.2198 79.6143 48.2198C78.7178 48.2198 77.9955 48.9421 77.9955 49.8386ZM19.4128 45.815V78.021C19.4128 78.9132 20.1394 79.6398 21.0316 79.6398C21.9239 79.6398 22.6504 78.9132 22.6504 78.021V45.815C22.6504 44.9227 21.9281 44.1962 21.0316 44.1962C20.1351 44.1962 19.4128 44.9227 19.4128 45.815ZM64.7052 44.2811V73.8359C64.7052 74.7281 65.4317 75.4547 66.324 75.4547C67.2162 75.4547 67.9428 74.7324 67.9428 73.8359V44.2811C67.9428 43.3889 67.2205 42.6623 66.324 42.6623C65.4275 42.6623 64.7052 43.3889 64.7052 44.2811ZM0 39.9941V54.1129C0 55.0052 0.722297 55.7317 1.6188 55.7317C2.5153 55.7317 3.23759 55.0094 3.23759 54.1129V39.9941C3.23759 39.1018 2.5153 38.3753 1.6188 38.3753C0.722297 38.3753 0 39.1018 0 39.9941ZM71.1761 36.9859V67.1865C71.1761 68.0788 71.9027 68.8053 72.7949 68.8053C73.6872 68.8053 74.4137 68.083 74.4137 67.1865V36.9859C74.4137 36.0937 73.6914 35.3671 72.7949 35.3671C71.8984 35.3671 71.1761 36.0937 71.1761 36.9859ZM25.8838 35.2184V46.0147C25.8838 46.9069 26.6061 47.6335 27.5026 47.6335C28.3991 47.6335 29.1214 46.9112 29.1214 46.0147V35.2184C29.1214 34.3262 28.3991 33.5996 27.5026 33.5996C26.6061 33.5996 25.8838 34.3262 25.8838 35.2184ZM51.7633 35.125V45.815C51.7633 46.7072 52.4856 47.4338 53.3821 47.4338C54.2786 47.4338 55.0009 46.7115 55.0009 45.815V35.125C55.0009 34.2327 54.2786 33.5062 53.3821 33.5062C52.4856 33.5062 51.7633 34.2285 51.7633 35.125ZM77.9955 30.8846V43.2359C77.9955 44.1282 78.722 44.8547 79.6143 44.8547C80.5065 44.8547 81.2331 44.1324 81.2331 43.2359V30.8846C81.2331 29.9924 80.5108 29.2658 79.6143 29.2658C78.7178 29.2658 77.9955 29.9924 77.9955 30.8846ZM0 30.5192V33.5062C0 34.3984 0.722297 35.125 1.6188 35.125C2.5153 35.125 3.23759 34.4027 3.23759 33.5062V30.5192C3.23759 29.627 2.5153 28.9004 1.6188 28.9004C0.722297 28.9004 0 29.627 0 30.5192ZM12.9419 30.5192V73.6107C12.9419 74.503 13.6684 75.2295 14.5607 75.2295C15.4529 75.2295 16.1795 74.5072 16.1795 73.6107V30.5192C16.1795 29.627 15.4529 28.9004 14.5607 28.9004C13.6684 28.9004 12.9419 29.627 12.9419 30.5192ZM38.8257 28.2121V36.3656C38.8257 37.2579 39.548 37.9844 40.4445 37.9844C41.341 37.9844 42.0633 37.2621 42.0633 36.3656V28.2121C42.0633 27.3199 41.341 26.5933 40.4445 26.5933C39.548 26.5933 38.8257 27.3199 38.8257 28.2121ZM58.2343 23.2283V63.8937C58.2343 64.7859 58.9566 65.5125 59.8531 65.5125C60.7495 65.5125 61.4718 64.7859 61.4718 63.8937V23.2283C61.4718 22.336 60.7495 21.6095 59.8531 21.6095C58.9566 21.6095 58.2343 22.336 58.2343 23.2283ZM19.4128 20.4155V39.327C19.4128 40.2193 20.1394 40.9458 21.0316 40.9458C21.9239 40.9458 22.6504 40.2193 22.6504 39.327V20.4155C22.6504 19.5233 21.9281 18.7968 21.0316 18.7968C20.1351 18.7968 19.4128 19.519 19.4128 20.4155ZM32.3547 19.5955V41.239C32.3547 42.1312 33.077 42.8578 33.9735 42.8578C34.87 42.8578 35.5923 42.1355 35.5923 41.239V19.5955C35.5923 18.7033 34.87 17.9767 33.9735 17.9767C33.077 17.9767 32.3547 18.7033 32.3547 19.5955ZM6.47094 17.8068V47.1661C6.47094 48.0583 7.19748 48.7849 8.08973 48.7849C8.98199 48.7849 9.70854 48.0626 9.70854 47.1661V17.8068C9.70854 16.9145 8.98623 16.188 8.08973 16.188C7.19323 16.188 6.47094 16.9103 6.47094 17.8068ZM71.1761 17.4499V30.4215C71.1761 31.3138 71.9027 32.0403 72.7949 32.0403C73.6872 32.0403 74.4137 31.3138 74.4137 30.4215V17.4499C74.4137 16.5576 73.6914 15.8311 72.7949 15.8311C71.8984 15.8311 71.1761 16.5576 71.1761 17.4499ZM45.2924 12.1006V41.0393C45.2924 41.9315 46.0147 42.6581 46.9112 42.6581C47.8077 42.6581 48.53 41.9315 48.53 41.0393V12.1006C48.53 11.2084 47.8077 10.4818 46.9112 10.4818C46.0147 10.4818 45.2924 11.2084 45.2924 12.1006ZM12.9419 11.0257V24.078C12.9419 24.9703 13.6684 25.6968 14.5607 25.6968C15.4529 25.6968 16.1795 24.9703 16.1795 24.078V11.0257C16.1795 10.1334 15.4572 9.40688 14.5607 9.40688C13.6642 9.40688 12.9419 10.1292 12.9419 11.0257ZM64.7052 10.7962V37.8612C64.7052 38.7534 65.4317 39.48 66.324 39.48C67.2162 39.48 67.9428 38.7577 67.9428 37.8612V10.7962C67.9428 9.90399 67.2205 9.17744 66.324 9.17744C65.4275 9.17744 64.7052 9.90399 64.7052 10.7962ZM19.4128 6.61541V13.4815C19.4128 14.3737 20.1394 15.1003 21.0316 15.1003C21.9239 15.1003 22.6504 14.3737 22.6504 13.4815V6.61541C22.6504 5.72316 21.9281 4.99661 21.0316 4.99661C20.1351 4.99661 19.4128 5.72316 19.4128 6.61541ZM58.2343 6.4667V16.7276C58.2343 17.6198 58.9566 18.3464 59.8531 18.3464C60.7495 18.3464 61.4718 17.6241 61.4718 16.7276V6.4667C61.4718 5.57445 60.7495 4.8479 59.8531 4.8479C58.9566 4.8479 58.2343 5.5702 58.2343 6.4667ZM25.8838 3.7687V28.6752C25.8838 29.5675 26.6061 30.294 27.5026 30.294C28.3991 30.294 29.1214 29.5717 29.1214 28.6752V3.7687C29.1214 2.87645 28.3991 2.1499 27.5026 2.1499C26.6061 2.1499 25.8838 2.87645 25.8838 3.7687ZM51.7633 3.67522V28.6752C51.7633 29.5675 52.4856 30.294 53.3821 30.294C54.2786 30.294 55.0009 29.5717 55.0009 28.6752V3.67522C55.0009 2.78297 54.2786 2.05642 53.3821 2.05642C52.4856 2.05642 51.7633 2.78297 51.7633 3.67522ZM32.3547 2.15415V13.1373C32.3547 14.0296 33.077 14.7561 33.9735 14.7561C34.87 14.7561 35.5923 14.0338 35.5923 13.1373V2.15415C35.5923 1.2619 34.87 0.535355 33.9735 0.535355C33.077 0.535355 32.3547 1.25765 32.3547 2.15415ZM45.2924 2.11166V5.68492C45.2924 6.57717 46.0147 7.30371 46.9112 7.30371C47.8077 7.30371 48.53 6.57717 48.53 5.68492V2.11166C48.53 1.21941 47.8077 0.492864 46.9112 0.492864C46.0147 0.492864 45.2924 1.21516 45.2924 2.11166ZM38.8257 1.6188V21.7709C38.8257 22.6632 39.548 23.3897 40.4445 23.3897C41.341 23.3897 42.0633 22.6674 42.0633 21.7709V1.6188C42.0633 0.726546 41.341 0 40.4445 0C39.548 0 38.8257 0.726546 38.8257 1.6188Z" fill="white"/>
</mask>
<g mask="url(#mask0_104_2398)">
<path d="M81.2288 0.00390625H0V79.7881H81.2288V0.00390625Z" fill="url(#paint0_radial_104_2398)"/>
</g>
<path d="M137.662 15.4775H103.777C102.889 15.4775 102.163 15.7622 101.594 16.3316C101.024 16.9009 100.74 17.6317 100.74 18.5154C100.74 19.3992 101.024 20.13 101.594 20.6993C102.163 21.2687 102.894 21.5534 103.777 21.5534H117.459V61.6452C117.459 62.5756 117.773 63.3532 118.41 63.9905C119.043 64.6236 119.825 64.9422 120.756 64.9422C121.686 64.9422 122.468 64.6278 123.101 63.9905C123.734 63.3574 124.053 62.5756 124.053 61.6452V21.5534H137.67C138.558 21.5534 139.285 21.2687 139.854 20.6993C140.423 20.13 140.708 19.3992 140.708 18.5154C140.708 17.6317 140.423 16.9009 139.854 16.3316C139.285 15.7622 138.554 15.4775 137.67 15.4775" fill="#F5F5F5"/>
<path d="M168.631 32.3582C166.014 30.8159 163.036 30.0469 159.7 30.0469C156.365 30.0469 153.45 30.8159 150.833 32.3582C148.216 33.9006 146.147 35.9995 144.626 38.6592C143.105 41.319 142.323 44.3186 142.28 47.654V76.5332C142.28 77.4594 142.586 78.2327 143.198 78.8445C143.81 79.4563 144.579 79.7623 145.509 79.7623C146.44 79.7623 147.26 79.4563 147.855 78.8445C148.445 78.2327 148.743 77.4594 148.743 76.5332V59.4317C150.221 61.2034 152.006 62.6098 154.096 63.6423C156.187 64.679 158.477 65.1931 160.967 65.1931C164.047 65.1931 166.813 64.424 169.264 62.8817C171.712 61.3394 173.645 59.249 175.06 56.6105C176.475 53.9719 177.18 50.985 177.18 47.6497C177.18 44.3144 176.407 41.3147 174.869 38.655C173.326 35.9952 171.249 33.8963 168.631 32.354M169.485 53.7C168.491 55.4973 167.153 56.9079 165.462 57.9446C163.771 58.9813 161.85 59.4954 159.696 59.4954C157.542 59.4954 155.673 58.9771 153.965 57.9446C152.256 56.9121 150.914 55.4973 149.941 53.7C148.968 51.907 148.484 49.8888 148.484 47.6497C148.484 45.4106 148.968 43.3329 149.941 41.5399C150.91 39.7469 152.252 38.3321 153.965 37.2954C155.673 36.2629 157.584 35.7445 159.696 35.7445C161.808 35.7445 163.771 36.2629 165.462 37.2954C167.149 38.3321 168.491 39.7427 169.485 41.5399C170.475 43.3329 170.973 45.3723 170.973 47.6497C170.973 49.9271 170.475 51.9028 169.485 53.7Z" fill="#F5F5F5"/>
<path d="M212.84 30.2354C211.91 30.2354 211.141 30.5328 210.529 31.1234C209.917 31.7139 209.611 32.4957 209.611 33.4687V51.3307C209.611 52.8518 209.191 54.2242 208.345 55.4478C207.499 56.6715 206.369 57.6445 204.959 58.3625C203.544 59.0806 201.929 59.4375 200.115 59.4375C198.301 59.4375 196.504 59.0678 194.987 58.3285C193.466 57.5892 192.263 56.4505 191.375 54.9082C190.487 53.3659 190.045 51.4157 190.045 49.0491V33.4687C190.045 32.5382 189.739 31.7692 189.128 31.1573C188.516 30.5455 187.743 30.2396 186.816 30.2396C185.89 30.2396 185.117 30.5455 184.505 31.1573C183.893 31.7692 183.587 32.5425 183.587 33.4687V49.0491C183.587 52.5544 184.254 55.5115 185.584 57.9164C186.914 60.3255 188.728 62.1482 191.031 63.3931C193.334 64.638 195.938 65.2626 198.853 65.2626C201.768 65.2626 204.207 64.6507 206.42 63.4271C207.627 62.76 208.689 61.9613 209.62 61.0308V61.7148C209.62 62.6453 209.926 63.4143 210.537 64.0262C211.149 64.638 211.918 64.9439 212.849 64.9439C213.779 64.9439 214.599 64.638 215.194 64.0262C215.785 63.4143 216.082 62.6453 216.082 61.7148V33.4687C216.082 32.4957 215.785 31.7182 215.194 31.1234C214.604 30.5328 213.822 30.2354 212.849 30.2354" fill="#F5F5F5"/>
<path d="M267.752 31.5637C265.895 30.51 263.762 29.9789 261.353 29.9789C258.608 29.9789 256.17 30.5695 254.037 31.7506C252.533 32.5834 251.275 33.6456 250.243 34.9287C249.295 33.5054 248.101 32.3837 246.657 31.5594C244.8 30.5057 242.667 29.9746 240.262 29.9746C237.857 29.9746 235.554 30.5652 233.613 31.7464C232.797 32.2435 232.058 32.8256 231.391 33.4841C231.369 32.5621 231.076 31.8144 230.507 31.2408C229.916 30.6502 229.134 30.3528 228.161 30.3528C227.189 30.3528 226.462 30.6502 225.85 31.2408C225.238 31.8313 224.932 32.6131 224.932 33.5861V61.7685C224.932 62.699 225.238 63.468 225.85 64.0799C226.462 64.6917 227.231 64.9976 228.161 64.9976C229.092 64.9976 229.912 64.6917 230.507 64.0799C231.097 63.468 231.395 62.699 231.395 61.7685V43.9065C231.395 41.5441 232.113 39.5982 233.549 38.0814C234.985 36.5603 236.799 35.7997 238.996 35.7997C241.193 35.7997 242.816 36.4456 244.124 37.7329C245.433 39.0203 246.087 40.996 246.087 43.6558V61.7685C246.087 62.699 246.393 63.468 247.005 64.0799C247.617 64.6917 248.386 64.9976 249.316 64.9976C250.247 64.9976 251.067 64.6917 251.662 64.0799C252.252 63.468 252.55 62.699 252.55 61.7685V43.9065C252.55 41.5441 253.255 39.5982 254.67 38.0814C256.085 36.5603 257.89 35.7997 260.083 35.7997C262.275 35.7997 263.903 36.4456 265.211 37.7329C266.52 39.0203 267.174 40.996 267.174 43.6558V61.7685C267.174 62.699 267.48 63.468 268.092 64.0799C268.704 64.6917 269.473 64.9976 270.403 64.9976C271.334 64.9976 272.154 64.6917 272.744 64.0799C273.335 63.468 273.632 62.699 273.632 61.7685V43.6558C273.632 40.7411 273.114 38.2641 272.081 36.2119C271.045 34.164 269.6 32.6131 267.743 31.5552" fill="#F5F5F5"/>
<path d="M306.514 32.2945C303.897 30.7947 300.897 30.0469 297.519 30.0469C294.141 30.0469 291.078 30.7989 288.461 32.2945C285.843 33.7943 283.783 35.8635 282.287 38.502C280.787 41.1405 280.04 44.1912 280.04 47.654C280.04 51.1167 280.787 54.1037 282.287 56.7422C283.787 59.3807 285.843 61.4499 288.461 62.9497C291.078 64.4495 294.099 65.1973 297.519 65.1973C300.939 65.1973 303.956 64.4495 306.578 62.9497C309.195 61.4499 311.243 59.3807 312.721 56.7422C314.2 54.1037 314.939 51.0743 314.939 47.654C314.939 44.2337 314.187 41.1405 312.692 38.502C311.192 35.8635 309.135 33.7943 306.518 32.2945M307.304 53.7977C306.352 55.5695 305.035 56.9631 303.344 57.9786C301.653 58.994 299.712 59.4997 297.519 59.4997C295.327 59.4997 293.381 58.994 291.694 57.9786C290.003 56.9631 288.673 55.5737 287.704 53.7977C286.731 52.026 286.247 49.9781 286.247 47.654C286.247 45.3299 286.731 43.2734 287.704 41.4804C288.673 39.6874 290.003 38.2811 291.694 37.2699C293.381 36.2544 295.327 35.7488 297.519 35.7488C299.712 35.7488 301.658 36.2544 303.344 37.2699C305.031 38.2853 306.352 39.6874 307.304 41.4804C308.252 43.2777 308.728 45.3341 308.728 47.654C308.728 49.9738 308.252 52.026 307.304 53.7977Z" fill="#F5F5F5"/>
<path d="M352.176 31.1859C351.628 30.5953 350.867 30.2979 349.894 30.2979C348.921 30.2979 348.195 30.5953 347.583 31.1859C346.971 31.7764 346.665 32.5582 346.665 33.5312V44.1065H327.095V33.5312C327.095 32.5582 326.798 31.7807 326.207 31.1859C325.616 30.5953 324.835 30.2979 323.862 30.2979C322.889 30.2979 322.183 30.5953 321.614 31.1859C321.045 31.7764 320.76 32.5582 320.76 33.5312V61.7136C320.76 62.6441 321.045 63.4131 321.614 64.0249C322.183 64.6368 322.931 64.9427 323.862 64.9427C324.792 64.9427 325.612 64.6368 326.207 64.0249C326.798 63.4131 327.095 62.6441 327.095 61.7136V49.8084H346.665V61.7136C346.665 62.6441 346.971 63.4131 347.583 64.0249C348.195 64.6368 348.964 64.9427 349.894 64.9427C350.825 64.9427 351.623 64.6368 352.176 64.0249C352.724 63.4131 353 62.6441 353 61.7136V33.5312C353 32.5582 352.724 31.7807 352.176 31.1859Z" fill="#F5F5F5"/>
<path d="M189.531 18.9528C189.778 19.2587 189.905 19.6454 189.905 20.1042C189.905 20.7543 189.663 21.2642 189.183 21.6253C188.703 21.9865 188.006 22.1649 187.092 22.1649H183.566V14.7295H186.893C187.73 14.7295 188.38 14.8952 188.847 15.2308C189.315 15.5623 189.548 16.0339 189.548 16.6415C189.548 17.0323 189.455 17.368 189.268 17.6527C189.081 17.9373 188.809 18.154 188.456 18.2985C188.932 18.426 189.293 18.6427 189.54 18.9528M184.921 17.9034H186.77C187.216 17.9034 187.556 17.8141 187.789 17.6399C188.023 17.4615 188.142 17.2023 188.142 16.8539C188.142 16.5055 188.023 16.2421 187.789 16.0636C187.556 15.8809 187.216 15.7917 186.77 15.7917H184.921V17.9076V17.9034ZM188.512 19.998C188.512 19.2757 188.023 18.9146 187.046 18.9146H184.921V21.1027H187.046C188.023 21.1027 188.512 20.7331 188.512 19.998Z" fill="#18A9E1"/>
<path d="M193.886 21.779C193.279 21.4519 192.799 20.993 192.45 20.4067C192.102 19.8203 191.932 19.1703 191.932 18.448C191.932 17.7257 192.106 17.0713 192.45 16.4892C192.799 15.9029 193.275 15.4483 193.886 15.1169C194.494 14.7897 195.178 14.624 195.939 14.624C196.699 14.624 197.379 14.7897 197.991 15.1169C198.598 15.444 199.078 15.9029 199.427 16.4808C199.775 17.0628 199.945 17.7172 199.945 18.4437C199.945 19.1703 199.771 19.8288 199.427 20.4067C199.078 20.9887 198.603 21.4434 197.991 21.7705C197.383 22.0977 196.699 22.2634 195.939 22.2634C195.178 22.2634 194.498 22.0977 193.886 21.7705M197.277 20.7253C197.672 20.5044 197.986 20.19 198.212 19.7906C198.437 19.3912 198.552 18.9451 198.552 18.448C198.552 17.9508 198.437 17.5047 198.212 17.1053C197.986 16.7059 197.672 16.3958 197.277 16.1706C196.882 15.9454 196.436 15.8349 195.939 15.8349C195.441 15.8349 194.995 15.9454 194.6 16.1706C194.205 16.3915 193.891 16.7059 193.665 17.1053C193.44 17.5047 193.326 17.9551 193.326 18.448C193.326 18.9408 193.44 19.3912 193.665 19.7906C193.891 20.19 194.205 20.5001 194.6 20.7253C194.995 20.9505 195.441 21.061 195.939 21.061C196.436 21.061 196.882 20.9505 197.277 20.7253Z" fill="#18A9E1"/>
<path d="M209.649 20.9965V23.7455H208.375V22.1649H202.669V23.7455H201.385L201.394 20.9965H201.713C202.18 20.9753 202.507 20.6311 202.694 19.9598C202.881 19.2885 202.996 18.3325 203.038 17.0876L203.123 14.7295H208.574V20.9965H209.649ZM204.02 19.6199C203.901 20.2614 203.71 20.7203 203.446 20.9965H207.219V15.8979H204.309L204.258 17.215C204.224 18.1795 204.143 18.9783 204.024 19.6199" fill="#18A9E1"/>
<path d="M213.358 21.779C212.751 21.4519 212.271 20.993 211.922 20.4067C211.574 19.8203 211.404 19.1703 211.404 18.448C211.404 17.7257 211.578 17.0713 211.922 16.4892C212.271 15.9029 212.747 15.4483 213.358 15.1169C213.966 14.7897 214.65 14.624 215.411 14.624C216.171 14.624 216.851 14.7897 217.463 15.1169C218.07 15.444 218.551 15.9029 218.899 16.4808C219.247 17.0628 219.417 17.7172 219.417 18.4437C219.417 19.1703 219.243 19.8288 218.899 20.4067C218.551 20.9887 218.075 21.4434 217.463 21.7705C216.855 22.0977 216.171 22.2634 215.411 22.2634C214.65 22.2634 213.97 22.0977 213.358 21.7705M216.745 20.7253C217.14 20.5044 217.454 20.19 217.68 19.7906C217.905 19.3912 218.019 18.9451 218.019 18.448C218.019 17.9508 217.905 17.5047 217.68 17.1053C217.454 16.7059 217.14 16.3958 216.745 16.1706C216.35 15.9454 215.904 15.8349 215.406 15.8349C214.909 15.8349 214.463 15.9454 214.068 16.1706C213.673 16.3915 213.359 16.7059 213.133 17.1053C212.908 17.5047 212.793 17.9551 212.793 18.448C212.793 18.9408 212.908 19.3912 213.133 19.7906C213.359 20.19 213.673 20.5001 214.068 20.7253C214.463 20.9505 214.909 21.061 215.406 21.061C215.904 21.061 216.35 20.9505 216.745 20.7253Z" fill="#18A9E1"/>
<path d="M223.348 21.7783C222.74 21.4512 222.268 20.9923 221.924 20.4145C221.58 19.8324 221.41 19.1781 221.41 18.4515C221.41 17.725 221.584 17.0664 221.929 16.4886C222.277 15.9065 222.753 15.4519 223.356 15.1247C223.959 14.7975 224.639 14.6318 225.391 14.6318C225.999 14.6318 226.555 14.7381 227.061 14.9505C227.562 15.1629 227.987 15.4689 228.336 15.8725L227.443 16.7138C226.904 16.1317 226.241 15.8428 225.455 15.8428C224.945 15.8428 224.491 15.9532 224.087 16.1784C223.683 16.4036 223.369 16.7095 223.139 17.1089C222.914 17.504 222.8 17.9544 222.8 18.46C222.8 18.9656 222.914 19.4117 223.139 19.8069C223.365 20.202 223.683 20.5122 224.087 20.7374C224.491 20.9583 224.945 21.073 225.455 21.073C226.241 21.073 226.904 20.7799 227.443 20.1893L228.336 21.039C227.987 21.4427 227.562 21.7529 227.057 21.9653C226.551 22.1777 225.995 22.284 225.383 22.284C224.631 22.284 223.955 22.1182 223.348 21.7911" fill="#18A9E1"/>
<path d="M235.95 15.8979H233.485V22.1649H232.117V15.8979H229.661V14.7295H235.95V15.8979Z" fill="#18A9E1"/>
<path d="M239.446 21.779C238.839 21.4519 238.359 20.993 238.01 20.4067C237.662 19.8203 237.492 19.1703 237.492 18.448C237.492 17.7257 237.666 17.0713 238.01 16.4892C238.359 15.9029 238.835 15.4483 239.446 15.1169C240.054 14.7897 240.738 14.624 241.499 14.624C242.259 14.624 242.939 14.7897 243.551 15.1169C244.158 15.444 244.638 15.9029 244.987 16.4808C245.335 17.0628 245.505 17.7172 245.505 18.4437C245.505 19.1703 245.331 19.8288 244.987 20.4067C244.638 20.9887 244.163 21.4434 243.551 21.7705C242.943 22.0977 242.259 22.2634 241.499 22.2634C240.738 22.2634 240.058 22.0977 239.446 21.7705M242.833 20.7253C243.228 20.5044 243.542 20.19 243.767 19.7906C243.993 19.3912 244.107 18.9451 244.107 18.448C244.107 17.9508 243.993 17.5047 243.767 17.1053C243.542 16.7059 243.228 16.3958 242.833 16.1706C242.438 15.9454 241.991 15.8349 241.494 15.8349C240.997 15.8349 240.551 15.9454 240.156 16.1706C239.761 16.3915 239.446 16.7059 239.221 17.1053C238.996 17.5047 238.881 17.9551 238.881 18.448C238.881 18.9408 238.996 19.3912 239.221 19.7906C239.446 20.19 239.761 20.5001 240.156 20.7253C240.551 20.9505 240.997 21.061 241.494 21.061C241.991 21.061 242.438 20.9505 242.833 20.7253Z" fill="#18A9E1"/>
<path d="M253.688 14.7298V22.1653H252.316V19.361C251.615 19.6245 250.948 19.7519 250.319 19.7519C249.372 19.7519 248.641 19.5225 248.127 19.0679C247.613 18.6133 247.358 17.9547 247.358 17.0964V14.7256H248.726V16.9477C248.726 17.4703 248.879 17.874 249.185 18.1501C249.491 18.4263 249.924 18.5665 250.493 18.5665C251.139 18.5665 251.747 18.4348 252.32 18.1714V14.7298H253.693H253.688Z" fill="#18A9E1"/>
<path d="M263.397 14.7295V22.1649H262.016V18.9783H258.171V22.1649H256.79V14.7295H258.171V17.7971H262.016V14.7295H263.397Z" fill="#18A9E1"/>
<path d="M271.984 17.8481C272.46 18.2475 272.702 18.8423 272.702 19.6284C272.702 20.4144 272.438 21.0772 271.916 21.5148C271.393 21.9525 270.654 22.1692 269.706 22.1692H266.511V14.7337H267.871V17.249H269.932C270.824 17.249 271.508 17.4487 271.988 17.8481M270.888 20.7288C271.176 20.4824 271.321 20.1212 271.321 19.6454C271.321 18.7446 270.76 18.2942 269.643 18.2942H267.867V21.0985H269.643C270.182 21.0985 270.594 20.9752 270.883 20.7246M273.772 14.7295H275.132V22.1649H273.772V14.7295Z" fill="#18A9E1"/>
<path d="M283.821 21.005V22.1649H278.247V14.7295H283.672V15.8852H279.627V17.8184H283.218V18.9571H279.627V21.005H283.821Z" fill="#18A9E1"/>
<path d="M291.719 21.7783C291.112 21.4512 290.64 20.9923 290.296 20.4145C289.952 19.8324 289.782 19.1781 289.782 18.4515C289.782 17.725 289.956 17.0664 290.3 16.4886C290.649 15.9065 291.125 15.4519 291.728 15.1247C292.331 14.7975 293.011 14.6318 293.763 14.6318C294.371 14.6318 294.927 14.7381 295.433 14.9505C295.934 15.1629 296.359 15.4689 296.708 15.8725L295.815 16.7138C295.276 16.1317 294.613 15.8428 293.827 15.8428C293.317 15.8428 292.862 15.9532 292.459 16.1784C292.055 16.4036 291.741 16.7095 291.511 17.1089C291.286 17.504 291.171 17.9544 291.171 18.46C291.171 18.9656 291.286 19.4117 291.511 19.8069C291.736 20.202 292.055 20.5122 292.459 20.7374C292.862 20.9583 293.317 21.073 293.827 21.073C294.613 21.073 295.276 20.7799 295.815 20.1893L296.708 21.039C296.359 21.4427 295.934 21.7529 295.429 21.9653C294.923 22.1777 294.366 22.284 293.755 22.284C293.003 22.284 292.327 22.1182 291.719 21.7911" fill="#18A9E1"/>
<path d="M299.023 14.7295H300.383V20.0065L304.377 14.7295H305.66V22.1649H304.3V16.8964L300.306 22.1649H299.023V14.7295Z" fill="#18A9E1"/>
<path d="M310.151 21.7783C309.543 21.4512 309.072 20.9923 308.727 20.4145C308.383 19.8324 308.213 19.1781 308.213 18.4515C308.213 17.725 308.388 17.0664 308.732 16.4886C309.08 15.9065 309.556 15.4519 310.159 15.1247C310.763 14.7975 311.442 14.6318 312.195 14.6318C312.802 14.6318 313.359 14.7381 313.864 14.9505C314.366 15.1629 314.791 15.4689 315.139 15.8725L314.247 16.7138C313.707 16.1317 313.044 15.8428 312.258 15.8428C311.748 15.8428 311.294 15.9532 310.89 16.1784C310.487 16.4036 310.172 16.7095 309.943 17.1089C309.717 17.504 309.603 17.9544 309.603 18.46C309.603 18.9656 309.717 19.4117 309.943 19.8069C310.168 20.202 310.487 20.5122 310.89 20.7374C311.294 20.9583 311.748 21.073 312.258 21.073C313.044 21.073 313.707 20.7799 314.247 20.1893L315.139 21.039C314.791 21.4427 314.366 21.7529 313.86 21.9653C313.354 22.1777 312.798 22.284 312.186 22.284C311.434 22.284 310.758 22.1182 310.151 21.7911" fill="#18A9E1"/>
<path d="M322.753 15.8979H320.289V22.1649H318.916V15.8979H316.465V14.7295H322.753V15.8979Z" fill="#18A9E1"/>
<path d="M330.537 21.005V22.1649H324.962V14.7295H330.388V15.8852H326.343V17.8184H329.933V18.9571H326.343V21.005H330.537Z" fill="#18A9E1"/>
<path d="M339.927 22.1649L339.918 17.2363L337.475 21.3152H336.859L334.416 17.3V22.1649H333.107V14.7295H334.246L337.186 19.6454L340.097 14.7295H341.222L341.244 22.1649H339.927Z" fill="#18A9E1"/>
<path d="M349.835 17.8481C350.31 18.2475 350.553 18.8423 350.553 19.6284C350.553 20.4144 350.289 21.0772 349.767 21.5148C349.244 21.9525 348.505 22.1692 347.557 22.1692H344.358V14.7337H345.718V17.249H347.778C348.67 17.249 349.354 17.4487 349.835 17.8481ZM348.734 20.7288C349.023 20.4824 349.172 20.1212 349.172 19.6454C349.172 18.7446 348.611 18.2942 347.494 18.2942H345.722V21.0985H347.494C348.033 21.0985 348.445 20.9752 348.738 20.7246M351.623 14.7295H352.983V22.1649H351.623V14.7295Z" fill="#18A9E1"/>
<defs>
<radialGradient id="paint0_radial_104_2398" cx="0" cy="0" r="1" gradientUnits="userSpaceOnUse" gradientTransform="translate(40.8778 -4.64004) rotate(90) scale(85.2907 85.2907)">
<stop stop-color="#18A9E1"/>
<stop offset="0.24" stop-color="#18A9E1"/>
<stop offset="1" stop-color="#067CBE"/>
</radialGradient>
</defs>
</svg>
