<svg width="177" height="40" viewBox="0 0 177 40" fill="none" xmlns="http://www.w3.org/2000/svg">
<mask id="mask0_104_2019" style="mask-type:luminance" maskUnits="userSpaceOnUse" x="0" y="0" width="41" height="40">
<path d="M29.041 35.1751V38.9827C29.041 39.4277 29.4013 39.79 29.8483 39.79C30.2954 39.79 30.6556 39.4277 30.6556 38.9827V35.1751C30.6556 34.7302 30.2954 34.3679 29.8483 34.3679C29.4013 34.3679 29.041 34.7281 29.041 35.1751ZM3.22701 26.8226V33.3275C3.22701 33.7725 3.58934 34.1348 4.0343 34.1348C4.47926 34.1348 4.84159 33.7725 4.84159 33.3275V26.8226C4.84159 26.3776 4.48138 26.0153 4.0343 26.0153C3.58722 26.0153 3.22701 26.3776 3.22701 26.8226ZM38.8959 24.8542V26.8629C38.8959 27.3078 39.2582 27.6701 39.7031 27.6701C40.1481 27.6701 40.5104 27.3099 40.5104 26.8629V24.8542C40.5104 24.4092 40.1502 24.0469 39.7031 24.0469C39.2561 24.0469 38.8959 24.4071 38.8959 24.8542ZM9.68106 22.8476V38.9086C9.68106 39.3535 10.0434 39.7158 10.4883 39.7158C10.9333 39.7158 11.2956 39.3535 11.2956 38.9086V22.8476C11.2956 22.4027 10.9354 22.0403 10.4883 22.0403C10.0413 22.0403 9.68106 22.4027 9.68106 22.8476ZM32.2681 22.0827V36.8215C32.2681 37.2664 32.6304 37.6288 33.0754 37.6288C33.5203 37.6288 33.8826 37.2686 33.8826 36.8215V22.0827C33.8826 21.6378 33.5224 21.2754 33.0754 21.2754C32.6283 21.2754 32.2681 21.6378 32.2681 22.0827ZM0 19.9448V26.9858C0 27.4307 0.360205 27.793 0.807284 27.793C1.25436 27.793 1.61457 27.4328 1.61457 26.9858V19.9448C1.61457 19.4998 1.25436 19.1375 0.807284 19.1375C0.360205 19.1375 0 19.4998 0 19.9448ZM35.4951 18.4446V33.5055C35.4951 33.9504 35.8574 34.3128 36.3024 34.3128C36.7473 34.3128 37.1096 33.9526 37.1096 33.5055V18.4446C37.1096 17.9997 36.7494 17.6374 36.3024 17.6374C35.8553 17.6374 35.4951 17.9997 35.4951 18.4446ZM12.9081 17.5632V22.9472C12.9081 23.3922 13.2683 23.7545 13.7154 23.7545C14.1624 23.7545 14.5226 23.3943 14.5226 22.9472V17.5632C14.5226 17.1182 14.1624 16.7559 13.7154 16.7559C13.2683 16.7559 12.9081 17.1182 12.9081 17.5632ZM25.814 17.5166V22.8476C25.814 23.2926 26.1742 23.6549 26.6213 23.6549C27.0684 23.6549 27.4286 23.2947 27.4286 22.8476V17.5166C27.4286 17.0716 27.0684 16.7093 26.6213 16.7093C26.1742 16.7093 25.814 17.0695 25.814 17.5166ZM38.8959 15.402V21.5615C38.8959 22.0064 39.2582 22.3688 39.7031 22.3688C40.1481 22.3688 40.5104 22.0086 40.5104 21.5615V15.402C40.5104 14.957 40.1502 14.5947 39.7031 14.5947C39.2561 14.5947 38.8959 14.957 38.8959 15.402ZM0 15.2197V16.7093C0 17.1543 0.360205 17.5166 0.807284 17.5166C1.25436 17.5166 1.61457 17.1564 1.61457 16.7093V15.2197C1.61457 14.7748 1.25436 14.4125 0.807284 14.4125C0.360205 14.4125 0 14.7748 0 15.2197ZM6.45403 15.2197V36.7092C6.45403 37.1541 6.81636 37.5165 7.26132 37.5165C7.70628 37.5165 8.0686 37.1563 8.0686 36.7092V15.2197C8.0686 14.7748 7.70628 14.4125 7.26132 14.4125C6.81636 14.4125 6.45403 14.7748 6.45403 15.2197ZM19.3621 14.0692V18.1353C19.3621 18.5803 19.7223 18.9426 20.1694 18.9426C20.6165 18.9426 20.9767 18.5824 20.9767 18.1353V14.0692C20.9767 13.6242 20.6165 13.2619 20.1694 13.2619C19.7223 13.2619 19.3621 13.6242 19.3621 14.0692ZM29.041 11.5838V31.8634C29.041 32.3083 29.4013 32.6706 29.8483 32.6706C30.2954 32.6706 30.6556 32.3083 30.6556 31.8634V11.5838C30.6556 11.1388 30.2954 10.7765 29.8483 10.7765C29.4013 10.7765 29.041 11.1388 29.041 11.5838ZM9.68106 10.1811V19.6121C9.68106 20.0571 10.0434 20.4194 10.4883 20.4194C10.9333 20.4194 11.2956 20.0571 11.2956 19.6121V10.1811C11.2956 9.73614 10.9354 9.37382 10.4883 9.37382C10.0413 9.37382 9.68106 9.73402 9.68106 10.1811ZM16.1351 9.77217V20.5656C16.1351 21.0106 16.4953 21.3729 16.9424 21.3729C17.3895 21.3729 17.7497 21.0127 17.7497 20.5656V9.77217C17.7497 9.3272 17.3895 8.96488 16.9424 8.96488C16.4953 8.96488 16.1351 9.3272 16.1351 9.77217ZM3.22701 8.88013V23.5214C3.22701 23.9664 3.58934 24.3287 4.0343 24.3287C4.47926 24.3287 4.84159 23.9685 4.84159 23.5214V8.88013C4.84159 8.43517 4.48138 8.07284 4.0343 8.07284C3.58722 8.07284 3.22701 8.43305 3.22701 8.88013ZM35.4951 8.70214V15.171C35.4951 15.616 35.8574 15.9783 36.3024 15.9783C36.7473 15.9783 37.1096 15.616 37.1096 15.171V8.70214C37.1096 8.25718 36.7494 7.89486 36.3024 7.89486C35.8553 7.89486 35.4951 8.25718 35.4951 8.70214ZM22.587 6.03451V20.466C22.587 20.911 22.9472 21.2733 23.3943 21.2733C23.8414 21.2733 24.2016 20.911 24.2016 20.466V6.03451C24.2016 5.58955 23.8414 5.22722 23.3943 5.22722C22.9472 5.22722 22.587 5.58955 22.587 6.03451ZM6.45403 5.49844V12.0076C6.45403 12.4525 6.81636 12.8148 7.26132 12.8148C7.70628 12.8148 8.0686 12.4525 8.0686 12.0076V5.49844C8.0686 5.05348 7.7084 4.69115 7.26132 4.69115C6.81424 4.69115 6.45403 5.05136 6.45403 5.49844ZM32.2681 5.38402V18.8811C32.2681 19.3261 32.6304 19.6884 33.0754 19.6884C33.5203 19.6884 33.8826 19.3282 33.8826 18.8811V5.38402C33.8826 4.93905 33.5224 4.57673 33.0754 4.57673C32.6283 4.57673 32.2681 4.93905 32.2681 5.38402ZM9.68106 3.29906V6.72313C9.68106 7.16809 10.0434 7.53042 10.4883 7.53042C10.9333 7.53042 11.2956 7.16809 11.2956 6.72313V3.29906C11.2956 2.8541 10.9354 2.49178 10.4883 2.49178C10.0413 2.49178 9.68106 2.8541 9.68106 3.29906ZM29.041 3.2249V8.34194C29.041 8.7869 29.4013 9.14922 29.8483 9.14922C30.2954 9.14922 30.6556 8.78902 30.6556 8.34194V3.2249C30.6556 2.77994 30.2954 2.41762 29.8483 2.41762C29.4013 2.41762 29.041 2.77782 29.041 3.2249ZM12.9081 1.87942V14.3002C12.9081 14.7451 13.2683 15.1074 13.7154 15.1074C14.1624 15.1074 14.5226 14.7472 14.5226 14.3002V1.87942C14.5226 1.43446 14.1624 1.07214 13.7154 1.07214C13.2683 1.07214 12.9081 1.43446 12.9081 1.87942ZM25.814 1.83281V14.3002C25.814 14.7451 26.1742 15.1074 26.6213 15.1074C27.0684 15.1074 27.4286 14.7472 27.4286 14.3002V1.83281C27.4286 1.38785 27.0684 1.02553 26.6213 1.02553C26.1742 1.02553 25.814 1.38785 25.814 1.83281ZM16.1351 1.07426V6.55151C16.1351 6.99647 16.4953 7.35879 16.9424 7.35879C17.3895 7.35879 17.7497 6.99859 17.7497 6.55151V1.07426C17.7497 0.629302 17.3895 0.266978 16.9424 0.266978C16.4953 0.266978 16.1351 0.627183 16.1351 1.07426ZM22.587 1.05307V2.83503C22.587 3.27999 22.9472 3.64231 23.3943 3.64231C23.8414 3.64231 24.2016 3.27999 24.2016 2.83503V1.05307C24.2016 0.608112 23.8414 0.245788 23.3943 0.245788C22.9472 0.245788 22.587 0.605993 22.587 1.05307ZM19.3621 0.807284V10.857C19.3621 11.302 19.7223 11.6643 20.1694 11.6643C20.6165 11.6643 20.9767 11.3041 20.9767 10.857V0.807284C20.9767 0.362324 20.6165 0 20.1694 0C19.7223 0 19.3621 0.362324 19.3621 0.807284Z" fill="white"/>
</mask>
<g mask="url(#mask0_104_2019)">
<path d="M40.5083 0.00231934H0V39.7902H40.5083V0.00231934Z" fill="url(#paint0_radial_104_2019)"/>
</g>
<path d="M68.6509 7.71896H51.753C51.3102 7.71896 50.9478 7.86093 50.6639 8.14486C50.38 8.42878 50.238 8.79322 50.238 9.23394C50.238 9.67467 50.38 10.0391 50.6639 10.323C50.9478 10.607 51.3123 10.7489 51.753 10.7489H58.5757V30.7425C58.5757 31.2065 58.7325 31.5942 59.0504 31.9121C59.3661 32.2278 59.7559 32.3867 60.22 32.3867C60.684 32.3867 61.0739 32.2299 61.3896 31.9121C61.7053 31.5964 61.8642 31.2065 61.8642 30.7425V10.7489H68.6551C69.098 10.7489 69.4603 10.607 69.7442 10.323C70.0282 10.0391 70.1701 9.67467 70.1701 9.23394C70.1701 8.79322 70.0282 8.42878 69.7442 8.14486C69.4603 7.86093 69.0959 7.71896 68.6551 7.71896" fill="#22314B"/>
<path d="M84.0953 16.1372C82.79 15.368 81.3047 14.9845 79.6414 14.9845C77.9781 14.9845 76.5246 15.368 75.2194 16.1372C73.9141 16.9063 72.8823 17.953 72.1237 19.2794C71.3652 20.6059 70.9753 22.1018 70.9541 23.7651V38.1669C70.9541 38.6288 71.1067 39.0145 71.4118 39.3196C71.7169 39.6247 72.1004 39.7773 72.5644 39.7773C73.0285 39.7773 73.4374 39.6247 73.734 39.3196C74.0286 39.0145 74.1769 38.6288 74.1769 38.1669V29.6385C74.9142 30.5221 75.8042 31.2234 76.8466 31.7383C77.8891 32.2553 79.0312 32.5117 80.2728 32.5117C81.809 32.5117 83.1884 32.1282 84.411 31.3591C85.6314 30.5899 86.5955 29.5474 87.3011 28.2316C88.0067 26.9158 88.3584 25.4263 88.3584 23.7629C88.3584 22.0996 87.9728 20.6037 87.2057 19.2773C86.4366 17.9509 85.4005 16.9042 84.0953 16.1351M84.5211 26.7802C84.0253 27.6765 83.3579 28.3799 82.5146 28.8969C81.6713 29.4139 80.7136 29.6703 79.6393 29.6703C78.565 29.6703 77.6327 29.4118 76.781 28.8969C75.9292 28.3821 75.2596 27.6765 74.7744 26.7802C74.2892 25.886 74.0476 24.8796 74.0476 23.7629C74.0476 22.6463 74.2892 21.6102 74.7744 20.716C75.2575 19.8219 75.9271 19.1163 76.781 18.5993C77.6327 18.0844 78.5862 17.8259 79.6393 17.8259C80.6924 17.8259 81.6713 18.0844 82.5146 18.5993C83.3558 19.1163 84.0253 19.8198 84.5211 20.716C85.0148 21.6102 85.2627 22.6272 85.2627 23.7629C85.2627 24.8987 85.0148 25.8839 84.5211 26.7802Z" fill="#22314B"/>
<path d="M106.142 15.0778C105.678 15.0778 105.295 15.2261 104.989 15.5206C104.684 15.8151 104.532 16.205 104.532 16.6902V25.5979C104.532 26.3564 104.322 27.0408 103.9 27.6511C103.479 28.2613 102.915 28.7465 102.212 29.1046C101.506 29.4627 100.701 29.6407 99.7961 29.6407C98.8913 29.6407 97.995 29.4563 97.2386 29.0876C96.4801 28.719 95.8804 28.1511 95.4376 27.382C94.9947 26.6128 94.7744 25.6403 94.7744 24.4601V16.6902C94.7744 16.2262 94.6218 15.8427 94.3167 15.5375C94.0116 15.2324 93.626 15.0799 93.164 15.0799C92.7021 15.0799 92.3165 15.2324 92.0114 15.5375C91.7063 15.8427 91.5537 16.2283 91.5537 16.6902V24.4601C91.5537 26.2081 91.8864 27.6828 92.5496 28.8821C93.2128 30.0835 94.1175 30.9925 95.266 31.6133C96.4144 32.2341 97.7132 32.5456 99.1668 32.5456C100.62 32.5456 101.837 32.2405 102.94 31.6303C103.542 31.2976 104.072 30.8993 104.536 30.4352V30.7764C104.536 31.2404 104.689 31.6239 104.994 31.929C105.299 32.2341 105.682 32.3867 106.146 32.3867C106.61 32.3867 107.019 32.2341 107.316 31.929C107.61 31.6239 107.759 31.2404 107.759 30.7764V16.6902C107.759 16.205 107.61 15.8172 107.316 15.5206C107.021 15.2261 106.632 15.0778 106.146 15.0778" fill="#22314B"/>
<path d="M133.526 15.741C132.6 15.2155 131.536 14.9506 130.335 14.9506C128.966 14.9506 127.75 15.2452 126.686 15.8342C125.936 16.2495 125.309 16.7792 124.794 17.4191C124.322 16.7093 123.726 16.1499 123.006 15.7389C122.08 15.2134 121.016 14.9485 119.817 14.9485C118.618 14.9485 117.469 15.243 116.501 15.8321C116.094 16.08 115.725 16.3703 115.393 16.6987C115.382 16.2389 115.236 15.866 114.952 15.5799C114.658 15.2854 114.268 15.1371 113.782 15.1371C113.297 15.1371 112.935 15.2854 112.63 15.5799C112.325 15.8745 112.172 16.2643 112.172 16.7495V30.8039C112.172 31.268 112.325 31.6515 112.63 31.9566C112.935 32.2617 113.318 32.4143 113.782 32.4143C114.246 32.4143 114.655 32.2617 114.952 31.9566C115.247 31.6515 115.395 31.268 115.395 30.8039V21.8962C115.395 20.7182 115.753 19.7477 116.469 18.9913C117.185 18.2327 118.09 17.8535 119.186 17.8535C120.281 17.8535 121.09 18.1755 121.743 18.8176C122.396 19.4596 122.722 20.4448 122.722 21.7712V30.8039C122.722 31.268 122.874 31.6515 123.18 31.9566C123.485 32.2617 123.868 32.4143 124.332 32.4143C124.796 32.4143 125.205 32.2617 125.502 31.9566C125.796 31.6515 125.945 31.268 125.945 30.8039V21.8962C125.945 20.7182 126.296 19.7477 127.002 18.9913C127.708 18.2327 128.608 17.8535 129.701 17.8535C130.795 17.8535 131.606 18.1755 132.259 18.8176C132.911 19.4596 133.238 20.4448 133.238 21.7712V30.8039C133.238 31.268 133.39 31.6515 133.695 31.9566C134.001 32.2617 134.384 32.4143 134.848 32.4143C135.312 32.4143 135.721 32.2617 136.016 31.9566C136.31 31.6515 136.458 31.268 136.458 30.8039V21.7712C136.458 20.3177 136.2 19.0824 135.685 18.059C135.168 17.0377 134.448 16.2643 133.522 15.7367" fill="#22314B"/>
<path d="M152.856 16.1054C151.551 15.3574 150.055 14.9845 148.371 14.9845C146.686 14.9845 145.159 15.3596 143.853 16.1054C142.548 16.8534 141.521 17.8852 140.775 19.2011C140.027 20.5169 139.654 22.0382 139.654 23.7651C139.654 25.4919 140.027 26.9815 140.775 28.2973C141.523 29.6131 142.548 30.645 143.853 31.393C145.159 32.1409 146.665 32.5138 148.371 32.5138C150.076 32.5138 151.581 32.1409 152.888 31.393C154.193 30.645 155.215 29.6131 155.952 28.2973C156.689 26.9815 157.058 25.4707 157.058 23.7651C157.058 22.0594 156.683 20.5169 155.937 19.2011C155.189 17.8852 154.164 16.8534 152.859 16.1054M153.251 26.8289C152.776 27.7125 152.119 28.4075 151.276 28.9139C150.432 29.4203 149.464 29.6724 148.371 29.6724C147.277 29.6724 146.307 29.4203 145.466 28.9139C144.623 28.4075 143.959 27.7146 143.476 26.8289C142.991 25.9454 142.749 24.9241 142.749 23.7651C142.749 22.6061 142.991 21.5805 143.476 20.6864C143.959 19.7922 144.623 19.0909 145.466 18.5866C146.307 18.0802 147.277 17.828 148.371 17.828C149.464 17.828 150.435 18.0802 151.276 18.5866C152.117 19.093 152.776 19.7922 153.251 20.6864C153.723 21.5826 153.96 22.6082 153.96 23.7651C153.96 24.922 153.723 25.9454 153.251 26.8289Z" fill="#22314B"/>
<path d="M175.628 15.5524C175.354 15.2579 174.975 15.1096 174.49 15.1096C174.005 15.1096 173.642 15.2579 173.337 15.5524C173.032 15.8469 172.88 16.2368 172.88 16.722V21.9958H163.12V16.722C163.12 16.2368 162.972 15.849 162.677 15.5524C162.383 15.2579 161.993 15.1096 161.508 15.1096C161.022 15.1096 160.671 15.2579 160.387 15.5524C160.103 15.8469 159.961 16.2368 159.961 16.722V30.7764C159.961 31.2404 160.103 31.6239 160.387 31.929C160.671 32.2342 161.044 32.3867 161.508 32.3867C161.972 32.3867 162.381 32.2342 162.677 31.929C162.972 31.6239 163.12 31.2404 163.12 30.7764V24.8394H172.88V30.7764C172.88 31.2404 173.032 31.6239 173.337 31.929C173.642 32.2342 174.026 32.3867 174.49 32.3867C174.954 32.3867 175.352 32.2342 175.628 31.929C175.901 31.6239 176.039 31.2404 176.039 30.7764V16.722C176.039 16.2368 175.901 15.849 175.628 15.5524Z" fill="#22314B"/>
<path d="M94.5179 9.45221C94.6407 9.60477 94.7043 9.79759 94.7043 10.0264C94.7043 10.3506 94.5835 10.6049 94.3441 10.785C94.1047 10.9651 93.7572 11.0541 93.3016 11.0541H91.543V7.34607H93.202C93.6195 7.34607 93.9436 7.4287 94.1767 7.59609C94.4098 7.76136 94.5263 7.99656 94.5263 8.29955C94.5263 8.49449 94.4797 8.66187 94.3865 8.80384C94.2933 8.9458 94.1576 9.05387 93.9818 9.12591C94.2191 9.18947 94.3992 9.29754 94.5221 9.45221M92.2189 8.92886H93.1406C93.3631 8.92886 93.5326 8.88435 93.6491 8.79748C93.7656 8.70849 93.825 8.57924 93.825 8.4055C93.825 8.23175 93.7656 8.10038 93.6491 8.01139C93.5326 7.92028 93.3631 7.87578 93.1406 7.87578H92.2189V8.93097V8.92886ZM94.0093 9.97345C94.0093 9.61324 93.7656 9.43314 93.2783 9.43314H92.2189V10.5244H93.2783C93.7656 10.5244 94.0093 10.34 94.0093 9.97345Z" fill="#18A9E1"/>
<path d="M96.6898 10.8612C96.3868 10.6981 96.1473 10.4693 95.9736 10.1769C95.7998 9.88445 95.7151 9.56027 95.7151 9.20006C95.7151 8.83986 95.802 8.51355 95.9736 8.22327C96.1473 7.93086 96.3847 7.70414 96.6898 7.53887C96.9928 7.37572 97.3339 7.29309 97.7132 7.29309C98.0924 7.29309 98.4315 7.37572 98.7366 7.53887C99.0396 7.70202 99.279 7.93087 99.4528 8.21903C99.6265 8.50931 99.7112 8.83562 99.7112 9.19794C99.7112 9.56027 99.6244 9.88869 99.4528 10.1769C99.279 10.4671 99.0417 10.6939 98.7366 10.857C98.4336 11.0202 98.0924 11.1028 97.7132 11.1028C97.3339 11.1028 96.9949 11.0202 96.6898 10.857M98.3806 10.3358C98.5777 10.2256 98.7345 10.0688 98.8468 9.86961C98.9591 9.67044 99.0163 9.44797 99.0163 9.20006C99.0163 8.95216 98.9591 8.72967 98.8468 8.5305C98.7345 8.33133 98.5777 8.17665 98.3806 8.06435C98.1836 7.95205 97.9611 7.89696 97.7132 7.89696C97.4653 7.89696 97.2428 7.95205 97.0457 8.06435C96.8487 8.17453 96.6919 8.33133 96.5796 8.5305C96.4673 8.72967 96.4101 8.95427 96.4101 9.20006C96.4101 9.44585 96.4673 9.67044 96.5796 9.86961C96.6919 10.0688 96.8487 10.2235 97.0457 10.3358C97.2428 10.4481 97.4653 10.5032 97.7132 10.5032C97.9611 10.5032 98.1836 10.4481 98.3806 10.3358Z" fill="#18A9E1"/>
<path d="M104.551 10.4714V11.8423H103.915V11.0541H101.069V11.8423H100.429L100.434 10.4714H100.593C100.826 10.4608 100.989 10.2892 101.082 9.95438C101.175 9.6196 101.232 9.14286 101.254 8.52203L101.296 7.34607H104.015V10.4714H104.551ZM101.743 9.78487C101.684 10.1048 101.588 10.3337 101.457 10.4714H103.339V7.92875H101.887L101.862 8.5856C101.845 9.06658 101.805 9.46492 101.745 9.78487" fill="#18A9E1"/>
<path d="M106.4 10.8612C106.097 10.6981 105.858 10.4693 105.684 10.1769C105.511 9.88445 105.426 9.56027 105.426 9.20006C105.426 8.83986 105.513 8.51355 105.684 8.22327C105.858 7.93086 106.095 7.70414 106.4 7.53887C106.703 7.37572 107.045 7.29309 107.424 7.29309C107.803 7.29309 108.142 7.37572 108.447 7.53887C108.75 7.70202 108.99 7.93087 109.163 8.21903C109.337 8.50931 109.422 8.83562 109.422 9.19794C109.422 9.56027 109.335 9.88869 109.163 10.1769C108.99 10.4671 108.752 10.6939 108.447 10.857C108.144 11.0202 107.803 11.1028 107.424 11.1028C107.045 11.1028 106.706 11.0202 106.4 10.857M108.089 10.3358C108.286 10.2256 108.443 10.0688 108.555 9.86961C108.668 9.67044 108.725 9.44797 108.725 9.20006C108.725 8.95216 108.668 8.72967 108.555 8.5305C108.443 8.33133 108.286 8.17665 108.089 8.06435C107.892 7.95205 107.67 7.89696 107.422 7.89696C107.174 7.89696 106.951 7.95205 106.754 8.06435C106.557 8.17453 106.4 8.33133 106.288 8.5305C106.176 8.72967 106.119 8.95427 106.119 9.20006C106.119 9.44585 106.176 9.67044 106.288 9.86961C106.4 10.0688 106.557 10.2235 106.754 10.3358C106.951 10.4481 107.174 10.5032 107.422 10.5032C107.67 10.5032 107.892 10.4481 108.089 10.3358Z" fill="#18A9E1"/>
<path d="M111.382 10.8613C111.079 10.6981 110.844 10.4693 110.672 10.1811C110.501 9.89081 110.416 9.56451 110.416 9.20218C110.416 8.83986 110.503 8.51144 110.674 8.22327C110.848 7.93299 111.085 7.70627 111.386 7.54312C111.687 7.37997 112.026 7.29733 112.401 7.29733C112.704 7.29733 112.982 7.3503 113.234 7.45625C113.484 7.56219 113.696 7.71475 113.87 7.91604L113.425 8.33557C113.155 8.04529 112.825 7.90121 112.433 7.90121C112.179 7.90121 111.952 7.95629 111.751 8.06859C111.549 8.18089 111.393 8.33345 111.278 8.53262C111.166 8.72968 111.109 8.95428 111.109 9.20642C111.109 9.45857 111.166 9.68104 111.278 9.8781C111.39 10.0752 111.549 10.2298 111.751 10.3421C111.952 10.4523 112.179 10.5095 112.433 10.5095C112.825 10.5095 113.155 10.3633 113.425 10.0688L113.87 10.4926C113.696 10.6939 113.484 10.8485 113.232 10.9545C112.98 11.0604 112.702 11.1134 112.397 11.1134C112.022 11.1134 111.685 11.0308 111.382 10.8676" fill="#18A9E1"/>
<path d="M117.666 7.92875H116.437V11.0541H115.755V7.92875H114.531V7.34607H117.666V7.92875Z" fill="#18A9E1"/>
<path d="M119.41 10.8612C119.107 10.6981 118.868 10.4693 118.694 10.1769C118.52 9.88445 118.436 9.56027 118.436 9.20006C118.436 8.83986 118.522 8.51355 118.694 8.22327C118.868 7.93086 119.105 7.70414 119.41 7.53887C119.713 7.37572 120.054 7.29309 120.434 7.29309C120.813 7.29309 121.152 7.37572 121.457 7.53887C121.76 7.70202 121.999 7.93087 122.173 8.21903C122.347 8.50931 122.432 8.83562 122.432 9.19794C122.432 9.56027 122.345 9.88869 122.173 10.1769C121.999 10.4671 121.762 10.6939 121.457 10.857C121.154 11.0202 120.813 11.1028 120.434 11.1028C120.054 11.1028 119.715 11.0202 119.41 10.857M121.099 10.3358C121.296 10.2256 121.453 10.0688 121.565 9.86961C121.677 9.67044 121.735 9.44797 121.735 9.20006C121.735 8.95216 121.677 8.72967 121.565 8.5305C121.453 8.33133 121.296 8.17665 121.099 8.06435C120.902 7.95205 120.679 7.89696 120.432 7.89696C120.184 7.89696 119.961 7.95205 119.764 8.06435C119.567 8.17453 119.41 8.33133 119.298 8.5305C119.186 8.72967 119.128 8.95427 119.128 9.20006C119.128 9.44585 119.186 9.67044 119.298 9.86961C119.41 10.0688 119.567 10.2235 119.764 10.3358C119.961 10.4481 120.184 10.5032 120.432 10.5032C120.679 10.5032 120.902 10.4481 121.099 10.3358Z" fill="#18A9E1"/>
<path d="M126.513 7.34605V11.0541H125.828V9.65561C125.479 9.78698 125.146 9.85054 124.832 9.85054C124.36 9.85054 123.995 9.73612 123.739 9.5094C123.483 9.28269 123.355 8.95426 123.355 8.52625V7.34393H124.038V8.4521C124.038 8.71272 124.114 8.91401 124.267 9.05173C124.419 9.18946 124.635 9.25938 124.919 9.25938C125.241 9.25938 125.544 9.19369 125.83 9.06232V7.34605H126.515H126.513Z" fill="#18A9E1"/>
<path d="M131.354 7.34607V11.0541H130.666V9.46493H128.748V11.0541H128.059V7.34607H128.748V8.87588H130.666V7.34607H131.354Z" fill="#18A9E1"/>
<path d="M135.636 8.90131C135.874 9.10048 135.994 9.39712 135.994 9.78911C135.994 10.1811 135.863 10.5116 135.602 10.7299C135.342 10.9481 134.973 11.0562 134.501 11.0562H132.907V7.34818H133.585V8.60255H134.613C135.058 8.60255 135.399 8.70214 135.638 8.90131M135.09 10.3379C135.234 10.215 135.306 10.0349 135.306 9.79758C135.306 9.34838 135.026 9.12379 134.469 9.12379H133.583V10.5222H134.469C134.738 10.5222 134.943 10.4608 135.088 10.3358M136.528 7.34607H137.206V11.0541H136.528V7.34607Z" fill="#18A9E1"/>
<path d="M141.539 10.4756V11.0541H138.76V7.34607H141.465V7.9224H139.448V8.88648H141.239V9.45433H139.448V10.4756H141.539Z" fill="#18A9E1"/>
<path d="M145.478 10.8613C145.175 10.6981 144.94 10.4693 144.769 10.1811C144.597 9.89081 144.512 9.56451 144.512 9.20218C144.512 8.83986 144.599 8.51144 144.771 8.22327C144.944 7.93299 145.182 7.70627 145.483 7.54312C145.784 7.37997 146.123 7.29733 146.498 7.29733C146.801 7.29733 147.078 7.3503 147.33 7.45625C147.58 7.56219 147.792 7.71475 147.966 7.91604L147.521 8.33557C147.252 8.04529 146.921 7.90121 146.529 7.90121C146.275 7.90121 146.048 7.95629 145.847 8.06859C145.646 8.18089 145.489 8.33345 145.375 8.53262C145.262 8.72968 145.205 8.95428 145.205 9.20642C145.205 9.45857 145.262 9.68104 145.375 9.8781C145.487 10.0752 145.646 10.2298 145.847 10.3421C146.048 10.4523 146.275 10.5095 146.529 10.5095C146.921 10.5095 147.252 10.3633 147.521 10.0688L147.966 10.4926C147.792 10.6939 147.58 10.8485 147.328 10.9545C147.076 11.0604 146.798 11.1134 146.493 11.1134C146.118 11.1134 145.781 11.0308 145.478 10.8676" fill="#18A9E1"/>
<path d="M149.121 7.34607H149.799V9.97769L151.791 7.34607H152.431V11.0541H151.752V8.42668L149.761 11.0541H149.121V7.34607Z" fill="#18A9E1"/>
<path d="M154.67 10.8613C154.367 10.6981 154.132 10.4693 153.96 10.1811C153.789 9.89081 153.704 9.56451 153.704 9.20218C153.704 8.83986 153.791 8.51144 153.962 8.22327C154.136 7.93299 154.373 7.70627 154.674 7.54312C154.975 7.37997 155.314 7.29733 155.689 7.29733C155.992 7.29733 156.27 7.3503 156.522 7.45625C156.772 7.56219 156.984 7.71475 157.158 7.91604L156.713 8.33557C156.444 8.04529 156.113 7.90121 155.721 7.90121C155.467 7.90121 155.24 7.95629 155.039 8.06859C154.837 8.18089 154.681 8.33345 154.566 8.53262C154.454 8.72968 154.397 8.95428 154.397 9.20642C154.397 9.45857 154.454 9.68104 154.566 9.8781C154.679 10.0752 154.837 10.2298 155.039 10.3421C155.24 10.4523 155.467 10.5095 155.721 10.5095C156.113 10.5095 156.444 10.3633 156.713 10.0688L157.158 10.4926C156.984 10.6939 156.772 10.8485 156.52 10.9545C156.268 11.0604 155.99 11.1134 155.685 11.1134C155.31 11.1134 154.973 11.0308 154.67 10.8676" fill="#18A9E1"/>
<path d="M160.955 7.92875H159.726V11.0541H159.041V7.92875H157.819V7.34607H160.955V7.92875Z" fill="#18A9E1"/>
<path d="M164.836 10.4756V11.0541H162.056V7.34607H164.762V7.9224H162.745V8.88648H164.535V9.45433H162.745V10.4756H164.836Z" fill="#18A9E1"/>
<path d="M169.519 11.0541L169.515 8.59619L168.296 10.6303H167.989L166.771 8.62797V11.0541H166.118V7.34607H166.686L168.152 9.79758L169.604 7.34607H170.165L170.176 11.0541H169.519Z" fill="#18A9E1"/>
<path d="M174.46 8.90131C174.697 9.10048 174.818 9.39712 174.818 9.78911C174.818 10.1811 174.687 10.5116 174.426 10.7299C174.166 10.9481 173.797 11.0562 173.324 11.0562H171.729V7.34818H172.407V8.60255H173.435C173.88 8.60255 174.221 8.70214 174.46 8.90131ZM173.911 10.3379C174.055 10.215 174.13 10.0349 174.13 9.79758C174.13 9.34838 173.85 9.12379 173.293 9.12379H172.409V10.5222H173.293C173.562 10.5222 173.767 10.4608 173.914 10.3358M175.352 7.34607H176.03V11.0541H175.352V7.34607Z" fill="#18A9E1"/>
<defs>
<radialGradient id="paint0_radial_104_2019" cx="0" cy="0" r="1" gradientUnits="userSpaceOnUse" gradientTransform="translate(20.3855 -2.31359) rotate(90) scale(42.5339 42.5339)">
<stop stop-color="#18A9E1"/>
<stop offset="0.24" stop-color="#18A9E1"/>
<stop offset="1" stop-color="#067CBE"/>
</radialGradient>
</defs>
</svg>
