<svg version="1.1" xmlns="http://www.w3.org/2000/svg">
	<symbol viewBox="0 0 20 20" fill="currentColor" id="i-search">
		<path d="M 9.5,0 C 4.265145,0 0,4.265145 0,9.5 0,14.734837 4.2651422,19 9.5,19 c 2.251619,0 4.238551,-0.900886 5.869141,-2.216797 l 2.923828,2.923828 a 1,1 0 0 0 1.414062,0 1,1 0 0 0 0,-1.414062 L 16.783203,15.369141 C 18.099114,13.738551 19,11.751619 19,9.5 19,4.2651422 14.734837,0 9.5,0 Z m 0,2 c 4.153953,0 7.5,3.3460272 7.5,7.5 0,2.07032 -0.83355,3.938245 -2.181641,5.292969 a 1,1 0 0 0 -0.02539,0 1,1 0 0 0 -0.01563,0.03711 C 13.423742,16.170067 11.563272,17 9.5,17 5.3460272,17 2,13.653953 2,9.5 2,5.3460244 5.3460244,2 9.5,2 Z"/>
	</symbol>
	<symbol viewBox="0 0 22 22" fill="currentColor" id="i-tg">
		<path fill="url(#tg_gradient)" d="M10.8841 21.8845C16.8953 21.8845 21.7683 17.0115 21.7683 11.0004C21.7683 4.98921 16.8953 0.116211 10.8841 0.116211C4.873 0.116211 0 4.98921 0 11.0004C0 17.0115 4.873 21.8845 10.8841 21.8845Z"/>
		<path fill="white" d="M4.05357 11.5315C5.32592 10.8307 6.74621 10.2457 8.07326 9.6578C10.3563 8.69482 12.6484 7.74854 14.9637 6.86756C15.4141 6.71745 16.2235 6.57068 16.3029 7.23822C16.2594 8.18314 16.0806 9.12253 15.958 10.0619C15.6468 12.1277 15.287 14.1865 14.9363 16.2455C14.8154 16.9314 13.9562 17.2864 13.4065 16.8475C12.0853 15.9551 10.754 15.0713 9.44974 14.1583C9.02249 13.7241 9.41868 13.1007 9.80025 12.7907C10.8884 11.7183 12.0424 10.8072 13.0737 9.67943C13.3518 9.00769 12.5299 9.57381 12.2588 9.74729C10.7691 10.7738 9.31589 11.8631 7.74531 12.7653C6.94305 13.2069 6.00802 12.8295 5.20613 12.5831C4.48715 12.2854 3.43355 11.9855 4.05349 11.5316L4.05357 11.5315Z"/>
		<defs>
			<linearGradient id="tg_gradient" x1="14.5131" y1="3.74499" x2="9.07103" y2="16.4424" gradientUnits="userSpaceOnUse">
				<stop stop-color="#37AEE2"/>
				<stop offset="1" stop-color="#1E96C8"/>
			</linearGradient>
		</defs>
	</symbol>
	<symbol viewBox="0 0 23 22" fill="currentColor" id="i-wa">
		<path fill="#25D366" d="M11.6525 21.8845C17.6636 21.8845 22.5366 17.0115 22.5366 11.0004C22.5366 4.98921 17.6636 0.116211 11.6525 0.116211C5.64131 0.116211 0.768311 4.98921 0.768311 11.0004C0.768311 17.0115 5.64131 21.8845 11.6525 21.8845Z"/>
		<path fill="#FDFDFD" d="M11.9971 4.38184C13.6589 4.38263 15.2187 5.02995 16.3916 6.2041C17.5646 7.37839 18.2105 8.93959 18.21 10.5996C18.2086 14.0245 15.4226 16.812 11.9971 16.8135H11.9941C10.9544 16.8131 9.93282 16.5516 9.02539 16.0566L5.73145 16.9209L6.61328 13.7012C6.06956 12.7589 5.78274 11.6898 5.7832 10.5947C5.78471 7.16915 8.57252 4.38184 11.9971 4.38184ZM11.999 5.43164C9.1507 5.43187 6.83414 7.74857 6.83301 10.5957C6.83261 11.5715 7.10611 12.5216 7.62305 13.3438L7.74512 13.5391L7.22363 15.4453L9.17871 14.9326L9.36719 15.0439C10.16 15.5144 11.0686 15.7633 11.9951 15.7637H11.9971C14.8434 15.7637 17.16 13.4471 17.1611 10.5996C17.1616 9.21983 16.6253 7.92236 15.6504 6.94629C14.6754 5.9702 13.3783 5.43212 11.999 5.43164ZM10.0947 7.73145C10.19 7.73618 10.3184 7.69547 10.4443 7.99805C10.5737 8.30882 10.8837 9.07188 10.9229 9.15039C10.9617 9.2281 10.9873 9.31919 10.9355 9.42285C10.8838 9.52633 10.8578 9.59106 10.7803 9.68164C10.7027 9.77227 10.6167 9.88452 10.5469 9.9541C10.4693 10.0314 10.3891 10.1154 10.4795 10.2705C10.5701 10.426 10.8815 10.9341 11.3428 11.3457C11.9358 11.8746 12.4366 12.0385 12.5918 12.1162C12.7467 12.1938 12.8373 12.1814 12.9277 12.0781C13.0183 11.9745 13.3155 11.6242 13.4189 11.4688C13.5224 11.3134 13.6263 11.3398 13.7686 11.3916C13.9111 11.4436 14.6735 11.8186 14.8291 11.8965C14.9843 11.9742 15.0882 12.0134 15.127 12.0781C15.1655 12.1436 15.1652 12.4544 15.0361 12.8164C14.9063 13.1788 14.2864 13.5092 13.9883 13.5537C13.7209 13.5937 13.3826 13.6104 13.0107 13.4922C12.7854 13.4207 12.4961 13.3258 12.126 13.166C10.5686 12.4936 9.55125 10.9249 9.47363 10.8213C9.39588 10.7175 8.84004 9.97971 8.83984 9.21582C8.83984 8.45172 9.24051 8.07535 9.38281 7.91992C9.52502 7.76465 9.69339 7.72563 9.79688 7.72559C9.90036 7.72559 10.0043 7.7269 10.0947 7.73145Z"/>
	</symbol>
	<symbol viewBox="0 0 23 22" fill="currentColor" id="i-vk">
		<path fill="#4C6C91" d="M0.536621 11C0.536621 4.92487 5.46149 0 11.5366 0C17.6118 0 22.5366 4.92487 22.5366 11C22.5366 17.0751 17.6118 22 11.5366 22C5.46149 22 0.536621 17.0751 0.536621 11Z"/>
		<path fill="white" d="M12.112 14.6096C12.112 14.6096 12.3238 14.5865 12.4322 14.4722C12.5315 14.3674 12.5281 14.1697 12.5281 14.1697C12.5281 14.1697 12.5149 13.2464 12.9516 13.1101C13.382 12.976 13.9346 14.0029 14.5211 14.3978C14.9642 14.6964 15.3005 14.631 15.3005 14.631L16.8677 14.6096C16.8677 14.6096 17.6872 14.56 17.2987 13.9274C17.2666 13.8756 17.072 13.4593 16.1337 12.6042C15.1507 11.7091 15.2827 11.8539 16.466 10.3053C17.1868 9.36232 17.4749 8.78661 17.3848 8.54044C17.2993 8.30497 16.769 8.3675 16.769 8.3675L15.0049 8.3782C15.0049 8.3782 14.8741 8.36074 14.7771 8.41764C14.6824 8.4734 14.621 8.60353 14.621 8.60353C14.621 8.60353 14.3421 9.33302 13.9697 9.9538C13.184 11.2629 12.8701 11.3322 12.7416 11.2511C12.4426 11.0613 12.5172 10.4895 12.5172 10.0834C12.5172 8.81421 12.7134 8.28526 12.1355 8.14837C11.9439 8.10274 11.8027 8.07289 11.312 8.06782C10.6825 8.06162 10.1499 8.07007 9.84806 8.21484C9.6472 8.31117 9.49226 8.52636 9.58695 8.53875C9.70344 8.55396 9.96743 8.6086 10.1075 8.79562C10.2882 9.03728 10.2819 9.57919 10.2819 9.57919C10.2819 9.57919 10.3858 11.0731 10.0392 11.2584C9.80158 11.3857 9.47561 11.1261 8.77491 9.93803C8.41624 9.32964 8.14537 8.65704 8.14537 8.65704C8.14537 8.65704 8.09314 8.53143 7.9996 8.46383C7.88655 8.38215 7.72873 8.3568 7.72873 8.3568L6.05243 8.3675C6.05243 8.3675 5.8005 8.37426 5.70811 8.48185C5.62604 8.57705 5.70179 8.77478 5.70179 8.77478C5.70179 8.77478 7.01425 11.7891 8.5006 13.3083C9.86356 14.7009 11.4107 14.6096 11.4107 14.6096H12.112Z"/>
	</symbol>
	<symbol viewBox="0 0 23 22" fill="currentColor" id="i-vb">
		<path fill="#7F4DA0" d="M11.5366 -4.76837e-07C17.6118 -4.76837e-07 22.5366 4.92487 22.5366 11C22.5366 17.0751 17.6118 22 11.5366 22C5.46149 22 0.536621 17.0751 0.536621 11C0.536621 4.92487 5.46149 -4.76837e-07 11.5366 -4.76837e-07Z"/>
		<path fill="white" d="M14.4673 9.60583C14.4138 9.17118 14.2802 8.8299 14.0429 8.52761C13.7349 8.13836 13.3412 7.90527 12.7583 7.767C12.3785 7.67484 12.225 7.68542 12.0876 7.8109C11.9597 7.92847 11.9347 8.16417 12.0325 8.31679C12.1013 8.42757 12.1806 8.46726 12.4013 8.51057C12.6951 8.56464 12.8982 8.6348 13.0829 8.74042C13.475 8.96681 13.6575 9.32107 13.6771 9.89461C13.6862 10.1639 13.7095 10.2467 13.8035 10.3422C13.9779 10.5168 14.2881 10.4828 14.4197 10.2739C14.468 10.1952 14.4754 10.1609 14.4805 9.97802C14.4838 9.86482 14.479 9.69631 14.4673 9.60583V9.60583Z"/>
		<path fill="white" d="M16.0028 10.0964C15.9254 8.76482 15.4045 7.69346 14.4724 6.93967C13.9472 6.51612 13.3123 6.22488 12.6165 6.08324C12.3616 6.03258 11.8922 5.99152 11.8117 6.01501C11.7357 6.03676 11.6283 6.11902 11.5804 6.19342C11.5297 6.27409 11.5183 6.45422 11.5615 6.55841C11.6313 6.7326 11.761 6.79413 12.1243 6.82592C12.6845 6.87492 13.2622 7.07171 13.6987 7.36305C14.1971 7.69476 14.5933 8.14846 14.8495 8.68161C15.071 9.13968 15.2072 9.79983 15.2034 10.391C15.2021 10.6048 15.2351 10.7255 15.3211 10.8138C15.4509 10.9495 15.6401 10.9792 15.8071 10.8891C15.9921 10.7917 16.0354 10.6209 16.0028 10.0964V10.0964Z"/>
		<path fill="white" d="M17.7023 15.2243C17.6762 15.1482 17.6154 15.0308 17.572 14.9633C17.2985 14.5503 15.8287 13.4001 15.0949 13.0239C14.6759 12.8087 14.3655 12.7369 14.1353 12.8043C13.8879 12.8739 13.7576 12.9891 13.3429 13.5044C13.1758 13.711 13.0043 13.9045 12.9587 13.9349C12.8458 14.0132 12.6243 14.0763 12.468 14.0763C12.1055 14.0741 11.4477 13.8393 10.9418 13.5305C10.5489 13.2914 10.0452 12.863 9.65878 12.439C9.20286 11.9411 8.89244 11.5019 8.64709 11.0062C8.33015 10.3691 8.24982 9.97993 8.38223 9.69509C8.41481 9.62335 8.45823 9.54727 8.47775 9.52332C8.4973 9.50161 8.70138 9.33417 8.92714 9.15152C9.37004 8.79931 9.44167 8.71886 9.52417 8.47752C9.62837 8.17093 9.60017 7.85784 9.43951 7.54258C9.31575 7.3034 8.99228 6.78158 8.75783 6.44458C8.44737 6.00104 7.6745 5.05306 7.52034 4.92474C7.24246 4.69864 6.88645 4.65948 6.49346 4.81171C6.07884 4.97261 5.30161 5.59879 4.96944 6.03583C4.66984 6.43153 4.55482 6.712 4.53743 7.08163C4.52225 7.38601 4.54829 7.51213 4.70895 7.90133C5.96595 10.954 7.84165 13.3914 10.4186 15.3265C11.7646 16.3375 13.1606 17.1072 14.6086 17.6334C15.4531 17.9399 15.82 17.9551 16.252 17.703C16.4344 17.5942 16.886 17.1311 17.1378 16.7941C17.5546 16.2331 17.7088 15.9744 17.7522 15.7678C17.7826 15.6265 17.7587 15.3808 17.7023 15.2243V15.2243Z"/>
		<path fill="white" d="M17.5661 10.4016C17.5383 9.64832 17.4115 9.03048 17.147 8.34164C16.8859 7.66404 16.6217 7.22188 16.1227 6.62384C15.6509 6.0631 15.2844 5.74293 14.7033 5.38654C13.8924 4.88999 12.9056 4.56138 11.7998 4.42319C11.4226 4.37489 11.3373 4.37834 11.2216 4.45554C10.9974 4.60179 11.0004 4.96656 11.2253 5.11062C11.2998 5.15644 11.3658 5.17314 11.6675 5.21262C12.1306 5.27497 12.4284 5.33373 12.7817 5.43013C14.1672 5.80889 15.2327 6.58308 15.9451 7.73233C16.5412 8.69025 16.7886 9.64823 16.7535 10.8717C16.7413 11.2854 16.7502 11.3582 16.8134 11.4575C16.9345 11.6428 17.2538 11.6794 17.4176 11.5257C17.5195 11.432 17.5388 11.3617 17.5588 11.0077C17.5685 10.823 17.5705 10.5504 17.5661 10.4016V10.4016Z"/>
	</symbol>
	<symbol viewBox="0 0 16 16" fill="currentColor" id="i-close">
		<path d="M15.0594 12.9408C15.6453 13.5268 15.6453 14.476 15.0594 15.0619C14.7688 15.3549 14.3844 15.5002 14 15.5002C13.6156 15.5002 13.2322 15.3537 12.9397 15.0607L8 10.1236L3.06078 15.0596C2.76781 15.3549 2.38391 15.5002 2 15.5002C1.61609 15.5002 1.23266 15.3549 0.939453 15.0596C0.353516 14.4736 0.353516 13.5244 0.939453 12.9385L5.88008 7.99785L0.939453 3.05957C0.353516 2.47363 0.353516 1.52441 0.939453 0.938476C1.52539 0.352539 2.47461 0.352539 3.06055 0.938476L8 5.88144L12.9406 0.94082C13.5266 0.354883 14.4758 0.354883 15.0617 0.94082C15.6477 1.52676 15.6477 2.47598 15.0617 3.06191L10.1211 8.00253L15.0594 12.9408Z"/>
	</symbol>
	<symbol viewBox="0 0 22 18" fill="currentColor" id="i-burger">
		<path d="M0.5 1.5C0.5 0.671719 1.17172 0 2 0H20C20.8297 0 21.5 0.671719 21.5 1.5C21.5 2.32969 20.8297 3 20 3H2C1.17172 3 0.5 2.32969 0.5 1.5ZM0.5 9C0.5 8.17031 1.17172 7.5 2 7.5H20C20.8297 7.5 21.5 8.17031 21.5 9C21.5 9.82969 20.8297 10.5 20 10.5H2C1.17172 10.5 0.5 9.82969 0.5 9ZM20 18H2C1.17172 18 0.5 17.3297 0.5 16.5C0.5 15.6703 1.17172 15 2 15H20C20.8297 15 21.5 15.6703 21.5 16.5C21.5 17.3297 20.8297 18 20 18Z"/>
	</symbol>
	<symbol viewBox="0 0 20 20" fill="currentColor" id="i-arrow-angle">
		<path d="M18 19.5C18.8284 19.5 19.5 18.8284 19.5 18L19.5 4.5C19.5 3.67157 18.8284 3 18 3C17.1716 3 16.5 3.67157 16.5 4.5V16.5H4.5C3.67157 16.5 3 17.1716 3 18C3 18.8284 3.67157 19.5 4.5 19.5L18 19.5ZM2 2L0.93934 3.06066L16.9393 19.0607L18 18L19.0607 16.9393L3.06066 0.93934L2 2Z"/>
	</symbol>
	<symbol viewBox="0 0 32 36" fill="currentColor" id="i-play">
		<path d="M30.5 15.3205C32.5 16.4752 32.5 19.362 30.5 20.5167L5 35.2391C3 36.3938 0.499998 34.9504 0.499998 32.641L0.5 3.19615C0.5 0.886752 3 -0.556626 5 0.598075L30.5 15.3205Z"/>
	</symbol>
	<symbol viewBox="0 0 17 16" fill="currentColor" id="i-arrow-prev">
		<path d="M0.292893 8.70711C-0.0976314 8.31658 -0.0976315 7.68342 0.292892 7.29289L6.65685 0.928933C7.04738 0.538409 7.68054 0.538409 8.07107 0.928933C8.46159 1.31946 8.46159 1.95262 8.07107 2.34315L2.41421 8L8.07107 13.6569C8.46159 14.0474 8.46159 14.6805 8.07107 15.0711C7.68054 15.4616 7.04738 15.4616 6.65686 15.0711L0.292893 8.70711ZM17 8L17 9L1 9L1 8L1 7L17 7L17 8Z"/>
	</symbol>
	<symbol viewBox="0 0 17 16" fill="currentColor" id="i-arrow-next">
		<path d="M16.7071 8.70711C17.0976 8.31658 17.0976 7.68342 16.7071 7.29289L10.3431 0.928933C9.95262 0.538409 9.31946 0.538409 8.92893 0.928933C8.53841 1.31946 8.53841 1.95262 8.92893 2.34315L14.5858 8L8.92893 13.6569C8.53841 14.0474 8.53841 14.6805 8.92893 15.0711C9.31946 15.4616 9.95262 15.4616 10.3431 15.0711L16.7071 8.70711ZM0 8L-8.74228e-08 9L16 9L16 8L16 7L8.74228e-08 7L0 8Z"/>
	</symbol>
	<symbol viewBox="0 0 15 10" fill="currentColor" id="i-prod-arrow-next">
		<path d="M 1.8457031 0 C 1.373421 0 0.90135576 0.19254689 0.54101562 0.578125 C -0.17966265 1.3492862 -0.17966265 2.5999345 0.54101562 3.3710938 L 6.1953125 9.421875 C 6.6006946 9.8556577 7.1483848 10.044457 7.6777344 9.9902344 C 8.0894507 9.9480611 8.4893903 9.7592615 8.8046875 9.421875 L 14.458984 3.3710938 C 15.179684 2.5999345 15.179684 1.3492852 14.458984 0.578125 C 13.738285 -0.19303223 12.570309 -0.19303223 11.849609 0.578125 L 7.5 5.2324219 L 3.1503906 0.578125 C 2.790051 0.19254689 2.3179853 0 1.8457031 0 z "/>
	</symbol>
	<symbol viewBox="0 0 15 10" fill="currentColor" id="i-prod-arrow-prev">
		<path d="m 13.154313,9.9990623 c 0.472282,0 0.944347,-0.1925469 1.304687,-0.578125 0.720679,-0.7711612 0.720679,-2.0218095 0,-2.7929688 L 8.8047034,0.57718729 C 8.3993213,0.14340459 7.8516311,-0.04539471 7.3222815,0.00882789 6.9105652,0.05100119 6.5106256,0.23980079 6.1953284,0.57718729 L 0.54103192,6.6279685 c -0.7207,0.7711593 -0.7207,2.0218086 0,2.7929688 0.72069898,0.7711577 1.88867498,0.7711577 2.60937498,0 l 4.349609,-4.6542969 4.3496091,4.6542969 c 0.36034,0.3855781 0.832406,0.578125 1.304688,0.578125 z"/>
	</symbol>
</svg>
